<svg xmlns="http://www.w3.org/2000/svg" height="48" viewBox="0 -960 960 960" width="48"><path d="m86-245-59-44 195-312 119.143 140L502-720l120 177q-18.714 3.667-37.286 9.167Q566.143-528.333 549-519l-44-67-151.114 248L232-479 86-245ZM882-26 747-161q-22 15-45.827 22-23.826 7-49.173 7-73.917 0-124.958-51.059Q476-234.118 476-308.059T527.059-433.5q51.059-51.5 125-51.5T777.5-433.667Q829-382.333 829-308q0 26-8 50t-22 46.448L934-78l-52 52ZM651.859-205q43.081 0 73.611-30.099t30.53-72.76q0-43.081-30.401-73.611-30.402-30.53-73.5-30.53Q609-412 579-381.599q-30 30.402-30 73.5Q549-265 579.099-235q30.099 30 72.76 30ZM732-533q-20-7-40.095-8.955Q671.81-543.909 652-545l222-350 60 44-202 318Z"/></svg>